<svg xmlns="http://www.w3.org/2000/svg" xmlns:xlink="http://www.w3.org/1999/xlink" width="84" height="70" viewBox="0 0 84 70">
    <defs>
        <filter id="prefix__a" width="101.7%" height="130%" x="-.8%" y="-15%" filterUnits="objectBoundingBox">
            <feOffset dy="2" in="SourceAlpha" result="shadowOffsetOuter1"/>
            <feGaussianBlur in="shadowOffsetOuter1" result="shadowBlurOuter1" stdDeviation="2"/>
            <feColorMatrix in="shadowBlurOuter1" result="shadowMatrixOuter1" values="0 0 0 0 0 0 0 0 0 0 0 0 0 0 0 0 0 0 0.0365767045 0"/>
            <feMerge>
                <feMergeNode in="shadowMatrixOuter1"/>
                <feMergeNode in="SourceGraphic"/>
            </feMerge>
        </filter>
        <path id="prefix__b" d="M2.544 21.238L11.297 45.978 27.78 42.575 27.78 18.644z"/>
    </defs>
    <g fill="none" fill-rule="evenodd" filter="url(#prefix__a)" transform="translate(-84 -5)">
        <g transform="translate(84 5)">
            <use fill="#00AB6E" xlink:href="#prefix__b"/>
            <use fill="#00A449" xlink:href="#prefix__b"/>
            <path fill="#F7D424" d="M30.874 18.644L33.523 44.937 54.002 43.563 54.002 20.556z"/>
            <path fill="#229BC8" d="M57.489 21.955L82.395 21.555 76.174 45.353 58.884 43.98z"/>
            <path fill="#1B1918" d="M14.652 44.035c-.88 0-1.146-.377-1.213-.692-.08-.379-.784-2.035-1.529-3.789C9.485 33.85 7.5 29 7.754 27.444c.328-1.995 2.1-4.297 2.705-5.036l-2.332-6.89-2.619-.683.935-3.607 6.173-1.53 1.374 3.073-1.05 1.618c1.5 2.873 3.57 5.866 4.43 5.866.099-.01.18-.013.261-.013 1.374 0 2.554 1.18 3.51 3.509.39.953 4.214 14.957 4.65 16.55l.128.47-.457.17c-.336.126-8.276 3.094-10.81 3.094m-.216-1.08c.048.008.117.013.216.013 2.019 0 8.244-2.222 9.982-2.857-1.7-6.23-4.209-15.297-4.479-15.956-.964-2.353-1.905-2.848-2.524-2.848-.044 0-.088.002-.133.008-.042.004-.084.007-.127.007-1.938 0-4.714-5.144-5.518-6.72l-.14-.275 1.068-1.65-.772-1.73-4.695 1.164-.509 1.96 2.146.559 2.71 8.011-.2.23c-.023.028-2.318 2.684-2.658 4.746-.225 1.375 2.58 7.975 4.087 11.52.878 2.066 1.383 3.265 1.546 3.819M47.072 43.162l-12.37-1.579.064-.526c.013-.115 1.39-11.482 1.858-15.063.3-2.284 1.772-3.184 2.745-3.78.342-.209.765-.468.8-.627.143-.667-.024-.776-.523-1.103-.657-.43-1.65-1.078-1.31-3.367.604-4.059 3.25-5.102 4.895-5.352-.058-.13-.155-.298-.252-.426l-.16-.21.768-2.826 4.967.745-.019 2.978-.196.158c-.192.156-.391.388-.461.525.018.007.039.015.064.022 2.135.664 3.18 2.952 2.73 5.974-.378 2.535-1.556 2.953-2.417 3.258-.558.198-.82.29-.934.857.077.115.37.332.59.494.933.689 2.494 1.842 1.882 4.305-.28 1.125-.897 4.83-1.494 8.41-.406 2.442-.827 4.968-1.135 6.638l-.092.495zM35.885 40.66l10.322 1.317c.297-1.643.675-3.917 1.042-6.123.628-3.768 1.222-7.327 1.511-8.492.44-1.772-.58-2.525-1.48-3.19-.557-.411-1.132-.836-1.014-1.496.218-1.217 1.003-1.495 1.634-1.719.739-.261 1.436-.508 1.72-2.41.373-2.5-.372-4.293-1.993-4.797-.586-.183-.77-.535-.82-.8-.111-.576.354-1.126.667-1.423l.01-1.561-3.118-.468-.386 1.417c.226.35.492.906.298 1.367-.07.168-.26.457-.74.516-1.618.202-3.653 1.14-4.149 4.476-.24 1.613.26 1.939.838 2.317.54.353 1.28.836.982 2.22-.13.607-.692.95-1.285 1.313-.896.548-2.012 1.23-2.244 3.009-.411 3.131-1.517 12.238-1.795 14.527zM80.13 17.356l-13.16-4.193-8.7 21.307 15.31 6.933 7.942-16.533-1.393-7.514zm.118 6.474L76.8 22.07l2.548-3.085.9 4.845zm-7.176 16.173l-13.428-6.08 7.94-19.446 11.167 3.558-3.616 4.38 5.128 2.62-7.191 14.968zM13.508 50.545v2.534l-1.085 1.144h-1.368v2.326h-.86v-5.966l.36-.217V50.3h-.869v-.833h2.728l1.094 1.078zm-1.453 2.818l.585-.625v-1.834l-.576-.577h-1.009v3.036h1zM14.858 49.467h2.219l1.047 7.082h-.868l-.274-1.844H15.51l-.273 1.844h-.868l.868-5.938.358-.217v-.067h-.736v-.86zm1.472.86h-.178l-.52 3.518h1.227l-.529-3.518zM19.983 52.341L20.701 52.341 21.201 51.727 21.201 50.867 20.729 50.318 20.248 50.318 19.795 50.867 19.795 51.283 18.927 51.283 18.927 50.507 19.89 49.439 21.089 49.439 22.07 50.507 22.07 52.068 21.551 52.692 22.258 53.391 22.258 55.481 21.229 56.568 19.89 56.568 18.87 55.481 18.87 54.204 19.729 54.204 19.729 55.141 20.257 55.728 20.852 55.728 21.391 55.141 21.391 53.788 20.786 53.174 19.983 53.174zM23.099 57.259v-1.466h.68l.736-5.191.358-.228v-.065h-.736v-.842h3v6.326h.605v1.466h-.832v-.71h-2.98v.71h-.831zm3.18-6.95h-.849l-.783 5.484h1.632v-5.484zM31.178 52.616L31.178 53.477 29.583 53.477 29.583 55.689 30.847 55.689 30.847 54.961 31.706 54.961 31.706 56.549 28.724 56.549 28.724 50.611 29.083 50.394 29.083 50.327 28.224 50.327 28.224 49.467 31.622 49.467 31.622 51.14 30.762 51.14 30.762 50.327 29.583 50.327 29.583 52.616zM33.33 50.309L33.33 49.467 36.332 49.467 36.332 56.549 35.473 56.549 35.473 50.309 34.623 50.309 33.736 56.549 32.425 56.549 32.425 55.756 32.972 55.756 33.707 50.602 34.095 50.374 34.095 50.309zM39.861 56.55h-2.217v-7.083h.86v2.326h1.368l1.084 1.144v2.534l-1.095 1.078zm-1.358-3.897v3.036h1.01l.576-.577v-1.834l-.586-.625h-1zM41.778 49.486L43.138 49.486 43.138 52.607 44.732 52.607 44.732 49.486 45.591 49.486 45.591 56.549 44.732 56.549 44.732 53.429 43.138 53.429 43.138 56.549 42.278 56.549 42.278 50.621 42.627 50.413 42.627 50.346 41.778 50.346zM49.131 56.55h-2.217v-7.083h.858v2.326h1.369l1.084 1.144v2.534l-1.094 1.078zm-1.36-3.897v3.036h1.011l.575-.577v-1.834l-.585-.625h-1zm3.427 3.896h.858v-7.091h-.858v7.091zM52.973 50.346v-.86h1.358v2.487l-.13 2.846h.027l.698-2.798.803-2.535h1.16v7.063h-.858v-3.404l.16-2.458h-.028l-.67 2.383-1.104 3.48h-.916V50.62l.349-.208v-.067h-.85zm1.085-1.985l.472-.52.359.303h.576l.378-.303.453.52-.53.585h-1.17l-.538-.585zM62.468 50.82L61.93 50.261 61.317 50.261 60.787 50.82 60.787 55.131 61.326 55.736 61.921 55.736 62.468 55.131 62.468 54.346 63.327 54.337 63.327 55.453 62.298 56.597 60.948 56.597 59.929 55.453 59.929 50.48 60.958 49.401 62.298 49.401 63.327 50.48 63.327 51.547 62.468 51.547zM64.11 50.318v-.861h3.616v1.58h-.86v-.72H65.47v1.798h1.368l1.085 1.144v2.212l-1.095 1.078H64.61v-5.957l.35-.209v-.065h-.85zm1.36 2.658v2.713h1.01l.575-.577V53.6l-.585-.623h-1zM72.633 55.443l-1.066 1.135h-1.36l-1.056-1.135v-5.002l1.066-1.069h1.35l1.066 1.069v5.002zm-.858-.33V50.79l-.567-.567h-.641L70 50.79v4.321l.576.616h.623l.576-.616zM77.353 50.545v2.534l-1.085 1.144h-1.369v2.326h-.86v-5.966l.36-.217V50.3h-.869v-.833h2.728l1.095 1.078zM75.9 53.363l.584-.625v-1.834l-.576-.577H74.9v3.036H75.9z"/>
        </g>
    </g>
</svg>
