<?xml version="1.0" encoding="UTF-8"?>
<svg width="98px" height="403px" viewBox="0 0 98 403" version="1.1" xmlns="http://www.w3.org/2000/svg" xmlns:xlink="http://www.w3.org/1999/xlink">
    <!-- Generator: Sketch 64 (93537) - https://sketch.com -->
    <title>TagRS@3x</title>
    <desc>Created with Sketch.</desc>
    <g id="Landing" stroke="none" stroke-width="1" fill="none" fill-rule="evenodd">
        <g id="Разделяй-сам" transform="translate(-1276.000000, -124.000000)" fill="#168BC2" fill-rule="nonzero">
            <g id="TagRS" style="mix-blend-mode: multiply;" transform="translate(1321.500000, 331.000000) rotate(90.000000) translate(-1321.500000, -331.000000) translate(1103.000000, 276.000000)">
                <path d="M299.574475,65.1648148 L304.468276,70.3898148 L304.468276,75.5689815 L300.382626,75.5689815 L300.382626,72.0398148 L297.823482,69.3356481 L294.90516,69.3356481 L292.390913,72.0398148 L292.390913,92.9398148 L294.950057,95.8731481 L297.778584,95.8731481 L300.382626,92.9398148 L300.382626,89.1356481 L304.468276,89.0898148 L304.468276,94.4981481 L299.574475,100.043981 L293.154167,100.043981 L288.305263,94.4981481 L288.305263,70.3898148 L293.199064,65.1648148 L299.574475,65.1648148 Z M344.247249,65.0273148 L349.320639,70.2064815 L349.320639,94.4523148 L344.247249,99.9523148 L337.782043,99.9523148 L332.75355,94.4523148 L332.75355,70.2064815 L337.826941,65.0273148 L344.247249,65.0273148 Z M218.445126,65.0273148 L223.518516,70.2064815 L223.518516,94.4523148 L218.445126,99.9523148 L211.97992,99.9523148 L206.951427,94.4523148 L206.951427,70.2064815 L212.024817,65.0273148 L218.445126,65.0273148 Z M129.817934,65.0273148 L134.891324,70.2064815 L134.891324,94.4523148 L129.817934,99.9523148 L123.352728,99.9523148 L118.324235,94.4523148 L118.324235,70.2064815 L123.397626,65.0273148 L129.817934,65.0273148 Z M388.426153,65.4856481 L393.409749,99.8148148 L389.279201,99.8148148 L387.97718,90.8773148 L380.973208,90.8773148 L379.671187,99.8148148 L375.540639,99.8148148 L380.524235,65.4856481 L388.426153,65.4856481 Z M114.14879,65.4398148 L114.14879,69.1981481 L108.177454,69.1981481 L108.177454,99.8148148 L104.091804,99.8148148 L104.091804,69.1981481 L98.1653653,69.1981481 L98.1653653,65.4398148 L114.14879,65.4398148 Z M400.189235,65.4856481 L404.409578,78.5023148 L404.589167,78.5023148 L408.764612,65.4856481 L413.029852,65.4856481 L407.866667,81.0689815 L414.19718,99.8148148 L409.887043,99.8148148 L404.589167,83.5898148 L404.409578,83.5898148 L399.021906,99.8148148 L394.711769,99.8148148 L401.176975,81.0689815 L395.834201,65.4856481 L400.189235,65.4856481 Z M86.2675913,65.4856481 L86.2675913,69.6564815 L76.5697831,69.6564815 L76.5697831,80.7481481 L84.6961872,80.7481481 L84.6961872,84.9189815 L76.5697831,84.9189815 L76.5697831,95.6439815 L86.896153,95.6439815 L86.896153,99.8148148 L72.4841324,99.8148148 L72.4841324,65.4856481 L86.2675913,65.4856481 Z M242.285571,65.5773148 L242.285571,80.7023148 L249.873208,80.7023148 L249.873208,65.5773148 L253.958858,65.5773148 L253.958858,99.8148148 L249.873208,99.8148148 L249.873208,84.6898148 L242.285571,84.6898148 L242.285571,99.8148148 L238.19992,99.8148148 L238.19992,65.5773148 L242.285571,65.5773148 Z M270.930023,65.4856481 L275.913619,99.8148148 L271.783071,99.8148148 L270.48105,90.8773148 L263.477078,90.8773148 L262.175057,99.8148148 L258.044509,99.8148148 L263.028105,65.4856481 L270.930023,65.4856481 Z M54.3456393,65.5773148 L54.3456393,80.7023148 L61.9332763,80.7023148 L61.9332763,65.5773148 L66.0189269,65.5773148 L66.0189269,99.8148148 L61.9332763,99.8148148 L61.9332763,84.6898148 L54.3456393,84.6898148 L54.3456393,99.8148148 L50.2599886,99.8148148 L50.2599886,65.5773148 L54.3456393,65.5773148 Z M189.396598,65.5773148 L189.396598,79.3731481 L191.551667,79.3731481 L197.971975,65.5773148 L202.461701,65.5773148 L195.09855,81.4814815 L203.494338,99.8148148 L199.004612,99.8148148 L191.551667,83.5439815 L189.396598,83.5439815 L189.396598,99.8148148 L185.310947,99.8148148 L185.310947,65.5773148 L189.396598,65.5773148 Z M167.621427,65.4856481 L167.621427,76.7606481 L174.13153,76.7606481 L179.294715,82.3064815 L179.294715,94.5898148 L174.086632,99.8148148 L163.535776,99.8148148 L163.535776,65.4856481 L167.621427,65.4856481 Z M365.663242,65.5314815 L370.691735,70.7106481 L370.691735,79.0981481 L368.222386,82.1231481 L371.58968,85.5148148 L371.58968,94.6814815 L366.561187,99.8148148 L355.785845,99.8148148 L355.785845,65.5314815 L365.663242,65.5314815 Z M157.295057,65.4856481 L157.295057,99.8148148 L153.209406,99.8148148 L153.209406,69.5648148 L149.168653,69.5648148 L144.948311,99.8148148 L138.707591,99.8148148 L138.707591,95.9648148 L141.311632,95.9648148 L145.621769,65.4856481 L157.295057,65.4856481 Z M326.512831,65.4856481 L326.512831,99.8148148 L322.42718,99.8148148 L322.42718,69.5648148 L318.386427,69.5648148 L314.166084,99.8148148 L307.925365,99.8148148 L307.925365,95.9648148 L310.529406,95.9648148 L314.839543,65.4856481 L326.512831,65.4856481 Z M128.111838,69.1523148 L125.058824,69.1523148 L122.364989,71.9023148 L122.364989,92.8481481 L125.103721,95.8273148 L128.066941,95.8273148 L130.805674,92.8481481 L130.805674,71.9023148 L128.111838,69.1523148 Z M216.73903,69.1523148 L213.686016,69.1523148 L210.99218,71.9023148 L210.99218,92.8481481 L213.730913,95.8273148 L216.694132,95.8273148 L219.432865,92.8481481 L219.432865,71.9023148 L216.73903,69.1523148 Z M342.541153,69.1523148 L339.488139,69.1523148 L336.794304,71.9023148 L336.794304,92.8481481 L339.533037,95.8273148 L342.496256,95.8273148 L345.234989,92.8481481 L345.234989,71.9023148 L342.541153,69.1523148 Z M172.380537,80.9314815 L167.621427,80.9314815 L167.621427,95.6439815 L172.425434,95.6439815 L175.164167,92.8481481 L175.164167,83.9564815 L172.380537,80.9314815 Z M364.585708,84.5523148 L359.916393,84.5523148 L359.916393,95.5981481 L364.855091,95.5981481 L367.459132,92.9398148 L367.459132,87.4398148 L364.585708,84.5523148 Z M267.383139,69.6564815 L266.530091,69.6564815 L264.060742,86.7064815 L269.897386,86.7064815 L267.383139,69.6564815 Z M384.879269,69.6564815 L384.026221,69.6564815 L381.556872,86.7064815 L387.393516,86.7064815 L384.879269,69.6564815 Z M363.957146,69.7939815 L359.916393,69.7939815 L359.916393,80.3356481 L364.181632,80.3356481 L366.561187,77.4481481 L366.561187,72.4523148 L363.957146,69.7939815 Z M130.04242,10.4856481 L130.04242,41.1481481 L132.915845,41.1481481 L132.915845,48.2523148 L128.964886,48.2523148 L128.964886,44.8148148 L114.777352,44.8148148 L114.777352,48.2523148 L110.826393,48.2523148 L110.826393,41.1481481 L114.058995,41.1481481 L118.324235,10.4856481 L130.04242,10.4856481 Z M101.263276,10.3481481 L105.932591,15.5273148 L105.932591,23.0898148 L103.463242,26.1148148 L106.830537,29.5064815 L106.830537,39.6356481 L101.936735,44.9064815 L95.5613242,44.9064815 L90.7124201,39.6356481 L90.7124201,33.4481481 L94.7980708,33.4481481 L94.7980708,37.9856481 L97.3123174,40.7356481 L100.140845,40.7356481 L102.699989,37.9856481 L102.699989,31.4314815 L99.8265639,28.5439815 L96.0102968,28.5439815 L96.0102968,24.3273148 L99.4224886,24.3273148 L101.802043,21.4398148 L101.802043,17.2689815 L99.5571804,14.6106481 L97.2674201,14.6106481 L95.1123516,17.2689815 L95.1123516,19.2856481 L90.9818037,19.2856481 L90.9818037,15.5273148 L95.5613242,10.3481481 L101.263276,10.3481481 Z M82.4962215,10.4856481 L87.4798174,44.8148148 L83.3492694,44.8148148 L82.0472489,35.8773148 L75.0432763,35.8773148 L73.7412557,44.8148148 L69.6107078,44.8148148 L74.5943037,10.4856481 L82.4962215,10.4856481 Z M60.7659475,10.4856481 L65.9740297,15.7106481 L65.9740297,27.9939815 L60.8108447,33.5398148 L54.300742,33.5398148 L54.300742,44.8148148 L50.2150913,44.8148148 L50.2150913,10.4856481 L60.7659475,10.4856481 Z M205.290228,10.5773148 L205.290228,22.6314815 L204.661667,37.0231481 L204.796358,37.0231481 L208.118756,22.8606481 L211.935023,10.5773148 L217.457386,10.5773148 L217.457386,44.8148148 L213.371735,44.8148148 L213.371735,28.3148148 L214.045194,15.9856481 L213.910502,15.9856481 L210.812591,27.9481481 L205.559612,44.8148148 L201.204578,44.8148148 L201.204578,10.5773148 L205.290228,10.5773148 Z M194.739372,10.4856481 L194.739372,44.8148148 L190.653721,44.8148148 L190.653721,33.2648148 L187.106838,33.2648148 L181.853858,44.8148148 L177.364132,44.8148148 L183.335468,31.6606481 L179.69879,27.6731481 L179.69879,15.8023148 L184.861975,10.4856481 L194.739372,10.4856481 Z M173.547865,10.4856481 L173.547865,44.8148148 L169.462215,44.8148148 L169.462215,14.5648148 L165.421461,14.5648148 L161.201119,44.8148148 L154.9604,44.8148148 L154.9604,40.9648148 L157.564441,40.9648148 L161.874578,10.4856481 L173.547865,10.4856481 Z M151.144132,10.4856481 L151.144132,14.6564815 L141.446324,14.6564815 L141.446324,25.7481481 L149.572728,25.7481481 L149.572728,29.9189815 L141.446324,29.9189815 L141.446324,40.6439815 L151.772694,40.6439815 L151.772694,44.8148148 L137.360674,44.8148148 L137.360674,10.4856481 L151.144132,10.4856481 Z M23.6808105,10.2564815 L22.1543037,21.0731481 L26.1052626,21.0731481 L27.5868721,10.2564815 L31.4480365,10.2564815 L29.9664269,21.0731481 L34.1418721,21.0731481 L33.603105,24.7398148 L29.4276598,24.7398148 L28.6195091,30.3773148 L32.8398516,30.3773148 L32.21129,34.0898148 L28.080742,34.0898148 L26.5542352,44.8148148 L22.737968,44.8148148 L24.2644749,34.0898148 L20.313516,34.0898148 L18.7421119,44.8148148 L14.9258447,44.8148148 L16.4972489,34.0898148 L12.2320091,34.0898148 L12.7707763,30.3773148 L16.9911187,30.3773148 L17.7992694,24.7398148 L13.5789269,24.7398148 L14.1176941,21.0731481 L18.2931393,21.0731481 L19.8196461,10.2564815 L23.6808105,10.2564815 Z M125.956769,14.5648148 L121.916016,14.5648148 L118.189543,41.1481481 L125.956769,41.1481481 L125.956769,14.5648148 Z M78.9493379,14.6564815 L78.09629,14.6564815 L75.6269406,31.7064815 L81.4635845,31.7064815 L78.9493379,14.6564815 Z M25.5664954,24.7398148 L21.6155365,24.7398148 L20.7624886,30.3773148 L24.803242,30.3773148 L25.5664954,24.7398148 Z M59.1047489,14.6564815 L54.300742,14.6564815 L54.300742,29.3689815 L59.0598516,29.3689815 L61.8434817,26.3439815 L61.8434817,17.4523148 L59.1047489,14.6564815 Z M190.653721,14.7023148 L186.523174,14.7023148 L183.784441,17.4981481 L183.784441,26.0231481 L186.568071,29.0939815 L190.653721,29.0939815 L190.653721,14.7023148 Z M212.383995,2.60231481 L214.539064,5.12314815 L212.024817,7.96481481 L206.457557,7.96481481 L203.898413,5.12314815 L206.143276,2.60231481 L207.849372,4.06898148 L210.588105,4.06898148 L212.383995,2.60231481 Z" id="Combined-Shape"></path>
            </g>
        </g>
    </g>
</svg>